<svg width="20" height="20" viewBox="0 0 20 20" fill="none" xmlns="http://www.w3.org/2000/svg">
<g clip-path="url(#clip0_52_83)">
<path fill-rule="evenodd" clip-rule="evenodd" d="M7.27328 1.37575C4.37662 2.31575 2.32329 4.14575 1.05662 6.93575C0.179952 5.92575 -0.150048 4.78575 0.0632852 3.53575C0.359952 1.81575 1.37995 0.649086 3.06662 0.179086C4.66329 -0.26758 6.06662 0.169086 7.27328 1.37575ZM5.09658 17.9413C8.42586 19.8942 11.5985 19.8913 14.7878 18.0092C14.8196 18.0396 14.8528 18.0706 14.8865 18.102C14.9409 18.1527 14.9967 18.2047 15.0499 18.258C15.2026 18.4107 15.3543 18.5643 15.5059 18.718C15.8343 19.0507 16.1624 19.3831 16.4999 19.7046C17.0699 20.248 17.9199 19.9913 18.0966 19.2346C18.1799 18.8646 18.0132 18.5713 17.7599 18.318C17.2566 17.8146 16.7499 17.3113 16.2466 16.8113C19.8599 13.0046 19.2632 7.56132 16.1799 4.49465C13.1032 1.43798 8.19658 1.06798 4.76658 3.67465C3.00324 5.01465 1.85324 6.76798 1.43324 8.94132C0.853244 11.938 1.68658 14.5546 3.75658 16.8146C3.58439 16.9847 3.41355 17.1517 3.24428 17.3172L3.24411 17.3174C2.88262 17.6708 2.52829 18.0172 2.18324 18.3713C1.76324 18.8013 1.76658 19.348 2.16658 19.7346C2.53991 20.0946 3.10658 20.078 3.51324 19.6846C3.97658 19.2313 4.43658 18.7746 4.88658 18.3046C4.9678 18.221 5.01813 18.11 5.05769 18.0228C5.07171 17.9919 5.08437 17.964 5.09658 17.9413ZM10.9474 8.02824V8.02794V8.02778C10.9481 7.7508 10.9487 7.51704 10.9466 7.28465C10.9399 6.93798 10.8299 6.63465 10.5299 6.43132C10.2332 6.23132 9.91325 6.20465 9.59324 6.35798C9.21324 6.53798 9.05658 6.87132 9.05324 7.27465C9.05191 7.45165 9.04992 7.62879 9.04792 7.80598L9.04792 7.80646C9.03991 8.51671 9.0319 9.22782 9.06658 9.93465C9.07991 10.2113 9.22991 10.538 9.42324 10.7413C10.0683 11.4214 10.734 12.0827 11.3992 12.7435L11.3992 12.7435C11.6209 12.9637 11.8425 13.1839 12.0632 13.4046C12.5066 13.8446 13.0599 13.8713 13.4499 13.478C13.8366 13.088 13.8132 12.5213 13.3832 12.0846C13.2557 11.9547 13.1295 11.8232 13.0033 11.6917L13.0032 11.6917C12.6245 11.2973 12.2457 10.903 11.8332 10.548C11.1499 9.96132 10.6966 9.32465 10.9466 8.54132V8.54465C10.9466 8.35383 10.947 8.18418 10.9474 8.02824ZM18.9178 6.88912C18.9185 6.8907 18.9193 6.89227 18.92 6.89385L18.9166 6.89052C18.917 6.89005 18.9174 6.88958 18.9178 6.88912ZM18.9178 6.88912C19.9336 5.67949 20.2498 4.34996 19.7933 2.90719C19.28 1.28385 18.1166 0.300519 16.4266 0.0605185C15.03 -0.136148 13.82 0.313852 12.8066 1.40052C15.6483 2.34997 17.671 4.1551 18.9178 6.88912Z" fill="#012D75"/>
</g>
<defs>
<clipPath id="clip0_52_83">
<rect width="20" height="20" fill="white"/>
</clipPath>
</defs>
</svg>
