<svg width="20" height="20" viewBox="0 0 20 20" fill="none" xmlns="http://www.w3.org/2000/svg">
<g clip-path="url(#clip0_52_191)">
<path d="M0.00665234 10.0633C-0.00334766 9.39665 -0.0433477 8.72999 0.256652 8.10332C0.726652 7.10999 1.51332 6.53999 2.59332 6.41332C2.85332 6.38332 2.94999 6.27999 3.05665 6.07332C4.14332 3.94999 5.83665 2.55665 8.15332 1.97332C11.6533 1.08999 15.32 2.79999 16.9233 6.05332C17.0433 6.29332 17.17 6.38332 17.44 6.41332C18.9033 6.58665 19.9667 7.78999 19.9867 9.26665C19.9933 9.87999 20.0233 10.4933 19.97 11.1033C19.8233 12.7567 18.4667 13.8667 16.7933 13.7233C16.55 13.7033 16.4367 13.7733 16.3033 13.96C15.1233 15.5933 13.5467 16.6333 11.57 17.0533C11.37 17.0967 11.24 17.1733 11.14 17.37C10.76 18.1033 9.89332 18.4367 9.13332 18.17C8.33332 17.8867 7.85332 17.0633 8.01999 16.2533C8.18665 15.4467 8.92332 14.86 9.74665 14.9033C10.3033 14.9333 10.7633 15.1833 11.06 15.66C11.18 15.8533 11.3 15.9 11.5 15.8433C13.9467 15.1867 15.61 13.67 16.28 11.2233C17.3333 7.38332 14.8767 3.66665 10.94 3.02999C7.76999 2.51665 4.55665 4.59332 3.71999 7.70332C3.26665 9.37999 3.42999 10.9967 4.23332 12.5433C4.50665 13.0733 4.35999 13.4233 3.79332 13.6067C1.89665 14.21 0.00331901 12.8233 0.00665234 10.8367C0.00665234 10.58 0.00665234 10.32 0.00665234 10.0633Z" fill="#012D75"/>
<path d="M10.04 14.5767C9.74002 14.5467 9.47668 14.5534 9.23002 14.4867C8.84002 14.38 8.52002 14.4467 8.18335 14.6667C7.72668 14.9667 7.23668 15.2167 6.76668 15.4967C6.49668 15.6567 6.22668 15.7234 5.96002 15.51C5.70668 15.3067 5.70335 15.04 5.78668 14.75C5.93335 14.2234 6.07668 13.6967 6.20002 13.1634C6.22668 13.0434 6.20002 12.8634 6.12335 12.77C3.78335 9.86669 5.01335 5.73669 8.55668 4.62336C11.5333 3.69002 14.7133 5.83336 15.0333 8.94669C15.2833 11.3734 13.74 13.81 11.1133 14.43C10.75 14.5167 10.37 14.5334 10.0367 14.58L10.04 14.5767ZM10.5867 9.48003C10.5867 9.14336 10.3367 8.89002 10.0033 8.88669C9.65335 8.88669 9.40002 9.14669 9.40668 9.50002C9.41335 9.84336 9.65668 10.0767 10.0067 10.07C10.3533 10.0667 10.59 9.82669 10.59 9.48003H10.5867ZM7.99668 10.07C8.34002 10.0634 8.58002 9.81669 8.57335 9.47336C8.57002 9.14003 8.30668 8.88336 7.97668 8.88669C7.63668 8.88669 7.35668 9.17669 7.37002 9.50669C7.38668 9.83336 7.65668 10.0767 7.99335 10.07H7.99668ZM12.0233 10.07C12.3533 10.0634 12.6233 9.79669 12.6167 9.47669C12.6133 9.15669 12.3367 8.89002 12.0133 8.88669C11.67 8.88669 11.4067 9.15669 11.4167 9.50336C11.4267 9.84336 11.6767 10.0767 12.0267 10.07H12.0233Z" fill="#012D75"/>
</g>
<defs>
<clipPath id="clip0_52_191">
<rect width="20" height="20" fill="white"/>
</clipPath>
</defs>
</svg>
