<svg width="20" height="20" viewBox="0 0 20 20" fill="none" xmlns="http://www.w3.org/2000/svg">
<g clip-path="url(#clip0_52_656)">
<path d="M9.9867 20C4.51336 20.01 0.0133631 15.5267 2.97952e-05 10.0533C-0.0133035 4.49001 4.45003 0.00667409 10.0134 7.41983e-06C15.48 -0.00665925 19.9867 4.48001 20 9.95001C20.0134 15.5133 15.5534 19.99 9.9867 20ZM12.5667 10.4567C12.0534 10.4567 11.58 10.4633 11.1034 10.4567C10.63 10.4467 10.2834 10.16 10.29 9.75334C10.29 9.56001 10.37 9.36667 10.4334 9.17667C10.8234 8.00001 11.2167 6.82667 11.6234 5.62001C10.84 5.44001 10.0834 5.44334 9.34003 5.65334C7.64003 6.13334 6.62336 7.29001 6.26336 8.98667C5.4367 12.89 8.7667 15.0667 11.7034 14.38C11.8034 14.3567 11.92 14.2133 11.95 14.1033C12.0267 13.8267 12.06 13.54 12.1067 13.2533C12.26 12.3367 12.41 11.42 12.57 10.46L12.5667 10.4567ZM14.5267 7.88001C14.7634 6.92001 14.9867 6.01667 15.21 5.11667C15.2967 4.77001 15.23 4.67334 14.8667 4.67334C14.1667 4.67001 13.4667 4.68001 12.7667 4.66667C12.5267 4.66334 12.4067 4.75667 12.3334 4.98001C12.1167 5.66667 11.8834 6.34667 11.6567 7.03001C11.3834 7.85001 11.1067 8.66667 10.8367 9.48667C10.7134 9.86334 10.78 9.95334 11.1667 9.96001C11.3767 9.96334 11.59 9.96001 11.8 9.96001C12.2367 9.96001 12.6734 9.96001 13.1334 9.96001C13.0467 10.4767 12.97 10.9333 12.8934 11.39C12.7267 12.3833 12.5567 13.3767 12.4067 14.3767C12.39 14.5 12.4934 14.64 12.5434 14.77C12.6567 14.69 12.82 14.6333 12.8734 14.5233C13.9167 12.4667 14.9467 10.4033 15.9767 8.34334C16.13 8.03667 16.0367 7.88667 15.69 7.88001C15.3134 7.87001 14.9367 7.88001 14.5267 7.88001ZM4.70003 9.76001C4.5467 9.76001 4.38336 9.72667 4.24003 9.77001C4.1267 9.80334 4.04336 9.92667 3.9467 10.01C4.0367 10.0867 4.12336 10.2233 4.22336 10.23C4.55336 10.2567 4.8867 10.2567 5.21336 10.23C5.3067 10.22 5.3867 10.0767 5.47336 9.99667C5.38336 9.92001 5.30003 9.80001 5.1967 9.77334C5.04003 9.73667 4.87003 9.76334 4.70336 9.76334L4.70003 9.76001ZM6.0467 5.20334C5.98336 5.25001 5.8867 5.28334 5.87336 5.34001C5.85003 5.42334 5.8467 5.55667 5.8967 5.61001C6.14336 5.88001 6.40003 6.14001 6.67336 6.38001C6.73003 6.43001 6.92003 6.42001 6.9567 6.37001C7.01003 6.29334 7.03003 6.12001 6.9767 6.06001C6.7367 5.78667 6.47003 5.53667 6.2067 5.28001C6.17003 5.24334 6.11003 5.23001 6.0467 5.20001V5.20334ZM6.0367 14.8C6.10336 14.77 6.15336 14.76 6.18336 14.73C6.46003 14.4567 6.74003 14.19 7.00003 13.9033C7.04336 13.8567 7.02336 13.6833 6.9767 13.6467C6.91003 13.5933 6.74336 13.5633 6.69336 13.61C6.41003 13.86 6.14336 14.1267 5.8867 14.4033C5.84003 14.4533 5.83336 14.5767 5.86003 14.6433C5.8867 14.7133 5.98003 14.7533 6.04003 14.8033L6.0367 14.8ZM10.8334 4.11334C10.8334 3.94667 10.86 3.77667 10.8234 3.62001C10.8 3.51667 10.6834 3.43334 10.61 3.34001C10.53 3.42667 10.39 3.50667 10.3834 3.60001C10.3567 3.94001 10.36 4.28334 10.3834 4.62334C10.39 4.70667 10.5167 4.78334 10.59 4.86334C10.67 4.78001 10.7967 4.70667 10.82 4.60667C10.86 4.45001 10.83 4.28001 10.83 4.11334H10.8334ZM10.8334 15.87C10.8334 15.7167 10.86 15.5533 10.8234 15.41C10.7967 15.3067 10.6834 15.2267 10.61 15.1367C10.53 15.22 10.39 15.3 10.3834 15.39C10.3567 15.73 10.36 16.0733 10.3834 16.4133C10.39 16.5 10.52 16.5767 10.59 16.6567C10.67 16.57 10.7967 16.4967 10.82 16.3967C10.86 16.23 10.83 16.0467 10.83 15.87H10.8334Z" fill="#012D75"/>
</g>
<defs>
<clipPath id="clip0_52_656">
<rect width="20" height="20" fill="white"/>
</clipPath>
</defs>
</svg>
