<svg width="20" height="18" viewBox="0 0 20 18" fill="none" xmlns="http://www.w3.org/2000/svg">
<path d="M19.1767 0.540015H0.823333C0.37 0.540015 0 0.906682 0 1.36335V16.6433C0 17.0967 0.366667 17.4667 0.823333 17.4667H19.18C19.6333 17.4667 20.0033 17.1 20.0033 16.6433V1.36002C20.0033 0.906682 19.6367 0.536682 19.18 0.536682L19.1767 0.540015ZM6.72 14.9733C6.72 15.3733 6.52667 15.57 6.12333 15.5733C5.43 15.58 4.74 15.58 4.04667 15.5733C3.63 15.5733 3.44 15.3733 3.43667 14.9533C3.43667 13.5867 3.43667 12.22 3.43667 10.8533C3.43667 10.4467 3.64667 10.2367 4.05 10.2333C4.74333 10.2333 5.43333 10.2333 6.12667 10.2333C6.50333 10.2333 6.71667 10.4467 6.71667 10.82C6.71667 11.52 6.71667 12.22 6.71667 12.9233C6.71667 13.6067 6.71667 14.29 6.71667 14.9733H6.72ZM11.6467 14.92C11.6467 15.38 11.4567 15.57 10.9933 15.5733C10.3267 15.5733 9.66 15.5767 8.99667 15.5733C8.54 15.5733 8.35333 15.3767 8.35333 14.91C8.35333 12.9133 8.35333 10.9133 8.35333 8.91668C8.35333 8.46002 8.54667 8.26668 9.00667 8.26335C9.67333 8.26335 10.34 8.26335 11.0033 8.26335C11.4567 8.26335 11.6467 8.46002 11.6467 8.92335C11.6467 9.93002 11.6467 10.9367 11.6467 11.9467C11.6467 12.9367 11.6467 13.9267 11.6467 14.9167V14.92ZM16.56 14.95C16.56 15.37 16.37 15.5667 15.9567 15.57C15.2667 15.5767 14.5733 15.5767 13.8833 15.57C13.4667 15.57 13.28 15.3733 13.28 14.9533C13.28 14.1067 13.28 13.2633 13.28 12.4167C13.28 11.5633 13.28 10.71 13.28 9.85668C13.28 9.44335 13.4767 9.24668 13.8933 9.24335C14.5767 9.24002 15.26 9.24002 15.9433 9.24335C16.37 9.24335 16.5633 9.44668 16.5633 9.87668C16.5633 11.5667 16.5633 13.2567 16.5633 14.9467L16.56 14.95ZM16.3267 7.71002C15.9433 8.34668 15.19 8.64002 14.4633 8.44002C13.7767 8.24668 13.2633 7.60002 13.29 6.88002C13.3 6.61002 13.2 6.49335 12.9833 6.37335C12.4 6.05335 11.8267 5.71668 11.2533 5.37668C11.1367 5.30668 11.0567 5.30335 10.9367 5.38668C10.3733 5.77668 9.78333 5.80668 9.17667 5.48002C9.11 5.44335 8.97667 5.45335 8.91667 5.49668C8.20667 6.00002 7.5 6.51002 6.8 7.02668C6.74 7.07335 6.68667 7.19335 6.7 7.26668C6.84333 8.17668 6.3 9.00002 5.41667 9.19335C4.58 9.37668 3.70667 8.82668 3.49 7.98002C3.27333 7.13002 3.77667 6.25668 4.65 6.00335C5.06667 5.88335 5.48333 5.92335 5.86333 6.14335C5.99 6.21668 6.07 6.20335 6.18 6.12335C6.87667 5.61335 7.57333 5.10668 8.27333 4.60668C8.38667 4.52668 8.41667 4.45002 8.38667 4.31002C8.21333 3.49668 8.81333 2.63002 9.65333 2.45668C10.5167 2.27668 11.3967 2.82335 11.5833 3.65335C11.6067 3.75335 11.65 3.86002 11.6333 3.95335C11.5633 4.29002 11.76 4.42668 12.0167 4.56668C12.63 4.90002 13.23 5.26002 13.85 5.61668C14.7167 4.96335 15.63 5.22668 16.1133 5.74668C16.6133 6.28002 16.7033 7.08668 16.3233 7.71335L16.3267 7.71002Z" fill="#012D75"/>
</svg>
