<svg width="20" height="20" viewBox="0 0 20 20" fill="none" xmlns="http://www.w3.org/2000/svg">
<g clip-path="url(#clip0_52_70)">
<path d="M0 6C1.36333 6 2.67667 5.95667 3.98333 6.01333C5.29 6.07 6.06667 5.23333 6.01 4.00333C5.95667 2.80667 6 1.60667 6 0.406667V0H6.37667C8.96333 0 11.55 0 14.14 0C15.3267 0 15.9967 0.67 16 1.85333C16 3.74 16 5.63 16.0033 7.51667C16.0033 7.74333 15.9433 7.90667 15.78 8.07C14.3867 9.45333 12.9967 10.8433 11.6167 12.24C11.4267 12.4333 11.2633 12.6667 11.1367 12.91C10.7167 13.7167 10.3167 14.5333 9.91333 15.3467C9.62 15.94 9.70667 16.51 10.1367 16.9367C10.56 17.3567 11.1267 17.4467 11.7033 17.1633C12.57 16.74 13.4467 16.3367 14.28 15.8567C14.6933 15.62 15.02 15.23 15.3733 14.9C15.5633 14.7233 15.7367 14.52 15.9167 14.33C15.9433 14.3433 15.97 14.3567 15.9967 14.37C15.9967 14.5767 15.9967 14.78 15.9967 14.9867C15.9967 16.0633 15.9967 17.14 15.9967 18.2167C15.9933 19.2933 15.3 19.9933 14.23 19.9933C10.0767 19.9933 5.92333 19.9933 1.77 19.9933C0.7 19.9933 0.00333333 19.29 0 18.2167C0 14.2567 0 10.29 0 6.32667C0 6.23 0 6.13333 0 6ZM10.3467 8.66667C9.37 8.66667 8.39333 8.66667 7.41667 8.66667C7.09667 8.66667 6.85333 8.78333 6.72333 9.08333C6.52333 9.55 6.86667 9.99667 7.43333 9.99667C9.34333 10 11.2533 9.99667 13.1633 9.99667C13.6767 9.99667 13.9867 9.74667 13.9933 9.34C14 8.92333 13.68 8.66667 13.1467 8.66667C12.2133 8.66667 11.28 8.66667 10.35 8.66667H10.3467ZM3.36 9.06667C3.26667 8.98333 3.22667 8.94667 3.18667 8.91C2.84667 8.60333 2.45667 8.59 2.18667 8.87667C1.92333 9.15333 1.94667 9.54 2.24667 9.85333C2.43 10.0467 2.61667 10.2333 2.81 10.4167C3.16 10.75 3.51333 10.7533 3.86 10.4167C4.27333 10.0167 4.68 9.60667 5.08 9.19667C5.39667 8.87333 5.41333 8.47333 5.13333 8.19667C4.85333 7.92 4.45667 7.94 4.13333 8.26C3.87667 8.51667 3.63 8.78667 3.36 9.07V9.06667ZM3.36 12.4C3.27 12.3167 3.23667 12.29 3.20333 12.26C2.85667 11.9433 2.48 11.9167 2.2 12.19C1.91 12.4733 1.93667 12.8733 2.27 13.2167C2.44 13.39 2.61 13.5633 2.78667 13.7333C3.16 14.0933 3.51 14.09 3.88667 13.7233C4.28333 13.3367 4.67333 12.9433 5.06 12.55C5.39333 12.21 5.41667 11.8067 5.12333 11.5233C4.83333 11.2433 4.44 11.2767 4.1 11.62C3.85333 11.87 3.61333 12.13 3.35667 12.4H3.36ZM3.36 15.73C3.27 15.65 3.23 15.6133 3.19 15.5767C2.85 15.27 2.46 15.2533 2.19 15.54C1.92 15.8233 1.94667 16.21 2.26667 16.5433C2.44333 16.7267 2.62333 16.9067 2.80667 17.0833C3.15667 17.4167 3.51 17.4233 3.85667 17.0867C4.27 16.6867 4.67667 16.2767 5.08 15.8667C5.39667 15.54 5.41667 15.1433 5.13667 14.8667C4.85667 14.5867 4.46 14.6067 4.13667 14.9267C3.87667 15.1833 3.63333 15.4533 3.36 15.7367V15.73ZM8.31333 13.33C8.64667 13.33 8.98 13.34 9.31333 13.33C9.71333 13.3167 10 13.03 9.99667 12.6633C9.99333 12.2967 9.70667 12.0133 9.30333 12.0067C8.66 11.9967 8.01667 11.9967 7.37333 12.0067C6.96667 12.0133 6.68 12.29 6.67333 12.66C6.66667 13.04 6.96333 13.3233 7.38333 13.3333C7.69333 13.34 8.00667 13.3333 8.31667 13.3333L8.31333 13.33ZM8.01667 16.6633C8.22667 16.6633 8.44 16.67 8.65 16.6633C9.05 16.6467 9.33667 16.36 9.33 15.9933C9.32667 15.6367 9.04667 15.35 8.66667 15.34C8.22333 15.3267 7.78 15.3267 7.33333 15.34C6.95 15.35 6.67333 15.6367 6.67 15.9933C6.66667 16.36 6.95333 16.6467 7.35 16.6633C7.57 16.6733 7.79333 16.6633 8.01667 16.6633Z" fill="#012D75"/>
<path d="M16.5733 9.17334C17.0266 9.62667 17.45 10.05 17.89 10.4933C17.8333 10.5567 17.7633 10.64 17.69 10.7167C16.4333 11.9733 15.18 13.23 13.92 14.4833C13.8033 14.5967 13.6666 14.7 13.52 14.7733C12.7433 15.17 11.9633 15.5567 11.1266 15.9033C11.2066 15.74 11.2966 15.5833 11.3633 15.4167C11.95 13.9633 12.8466 12.74 14.0233 11.7C14.83 10.9867 15.5533 10.1867 16.3166 9.42334C16.4 9.34001 16.49 9.25667 16.5766 9.17667L16.5733 9.17334Z" fill="#012D75"/>
<path d="M0.506641 4.64998C1.88664 3.26665 3.26997 1.87998 4.66664 0.47998C4.66664 1.00331 4.66664 1.52998 4.66664 2.05998C4.66664 2.77998 4.66664 3.50331 4.66664 4.22331C4.66664 4.50331 4.55664 4.66998 4.25997 4.66998C3.02664 4.66998 1.79664 4.66998 0.563307 4.66998C0.526641 4.66998 0.489974 4.64998 0.506641 4.65331V4.64998Z" fill="#012D75"/>
<path d="M18.88 9.50331C18.43 9.04997 18.0133 8.62664 17.55 8.15997C17.8833 7.84997 18.2 7.49331 18.5767 7.21997C18.97 6.93331 19.4767 7.03997 19.7767 7.38664C20.0667 7.72331 20.0833 8.24664 19.77 8.60664C19.4967 8.92331 19.1833 9.20331 18.88 9.50664V9.50331Z" fill="#012D75"/>
</g>
<defs>
<clipPath id="clip0_52_70">
<rect width="20" height="20" fill="white"/>
</clipPath>
</defs>
</svg>
