<svg width="20" height="20" viewBox="0 0 20 20" fill="none" xmlns="http://www.w3.org/2000/svg">
<g clip-path="url(#clip0_52_431)">
<path d="M6.99662 15.95C6.84995 15.58 6.72995 15.2234 6.56329 14.8834C6.50329 14.76 6.35662 14.65 6.22329 14.59C5.71662 14.37 5.19329 14.1867 4.69329 13.96C4.51329 13.88 4.37662 13.8634 4.19995 13.94C3.84662 14.0934 3.45329 14.3834 3.13995 14.3234C2.81995 14.26 2.56662 13.8467 2.29662 13.58C2.06329 13.35 1.71329 13.1367 1.65995 12.8667C1.60995 12.6134 1.85662 12.29 2.00995 12.02C2.15995 11.7534 2.12329 11.5434 1.98329 11.2767C1.74995 10.83 1.59329 10.3434 1.38329 9.88002C1.33329 9.77002 1.22662 9.65669 1.11662 9.60336C0.836621 9.47336 0.539954 9.37669 0.246621 9.27336C0.0832876 9.21669 -0.00337907 9.13669 0.00328759 8.94669C0.0166209 8.38669 -0.00337907 7.82669 0.0199543 7.26669C0.0232876 7.16336 0.133288 7.02002 0.233288 6.97669C0.573288 6.82336 1.01662 6.78336 1.26329 6.54669C1.50329 6.31336 1.54662 5.89336 1.67995 5.55336C1.72662 5.43336 1.75995 5.29669 1.84329 5.20002C2.22329 4.75669 2.10329 4.33669 1.85662 3.88002C1.56662 3.34336 1.59329 3.33002 2.04329 2.89336C2.34995 2.59669 2.66329 2.30336 2.96329 2.00002C3.08662 1.87669 3.19329 1.81336 3.36329 1.92002C4.03662 2.34669 4.70662 2.44336 5.39662 1.93669C5.53995 1.83002 5.73995 1.76669 5.92329 1.74336C6.38995 1.69002 6.57995 1.41336 6.71995 1.01336C6.97329 0.280024 6.99329 0.286691 7.78995 0.286691C8.17995 0.286691 8.56995 0.273357 8.95995 0.296691C9.06662 0.303357 9.23995 0.406691 9.25995 0.493357C9.43995 1.27336 9.87329 1.77669 10.7266 1.91002C10.96 1.94669 11.19 2.07669 11.3866 2.21002C11.6433 2.38669 11.8633 2.35336 12.1233 2.22669C12.42 2.08336 12.76 1.84002 13.0333 1.89002C13.3066 1.94002 13.5233 2.29669 13.7633 2.52002C13.98 2.72336 14.1766 2.94336 14.4066 3.13336C14.5766 3.27336 14.5933 3.41002 14.4833 3.58002C14.0666 4.20336 13.9766 4.80669 14.4633 5.45669C14.65 5.70669 14.6866 6.06002 14.8133 6.35669C14.8566 6.46002 14.9566 6.56669 15.0566 6.61336C15.35 6.74336 15.6533 6.84669 15.9566 6.95336C16.12 7.01002 16.2033 7.09002 16.2 7.28002C16.1866 7.83002 16.1866 8.38002 16.2 8.93003C16.2033 9.11669 16.1266 9.20336 15.96 9.26003C15.72 9.34336 15.4833 9.44336 15.24 9.52002C14.9966 9.59669 14.79 9.69002 14.75 9.97336C14.7433 10.0267 14.6666 10.1034 14.6066 10.1167C14.2866 10.1967 14.1433 10.42 14.0366 10.6967C13.9 11.0567 13.3533 11.2667 12.9833 11.1134C12.5166 10.92 12.2866 10.96 11.9333 11.2967C11.71 11.51 11.49 11.72 11.27 11.9367C10.96 12.2434 10.92 12.4767 11.0933 12.8734C11.28 13.3034 11.0633 13.76 10.6333 13.9667C10.43 14.0634 10.28 14.2667 10.11 14.4234C10.0866 14.4434 10.0833 14.5 10.0633 14.5067C9.48995 14.6667 9.51995 15.21 9.33995 15.6034C9.22329 15.8567 9.10995 15.9634 8.81329 15.95C8.21329 15.9234 7.61329 15.9434 7.00662 15.9434L6.99662 15.95ZM8.05329 12.85C10.78 12.8567 12.98 10.76 12.99 8.14002C13.0033 5.53336 10.8166 3.40002 8.12662 3.38669C5.40329 3.37669 3.21329 5.46669 3.18662 8.10002C3.15995 10.6867 5.36995 12.8434 8.05329 12.85Z" fill="#012D75"/>
<path d="M10.7233 14.5867C11.33 14.55 11.5467 14.17 11.7433 13.6867C11.89 13.3233 11.9667 13.0333 11.7333 12.7067C11.6267 12.5567 11.6667 12.43 11.8133 12.32C11.9 12.2533 11.9867 12.18 12.05 12.0933C12.3367 11.7033 12.6667 11.5767 13.1067 11.88C13.1667 11.9233 13.2833 11.9367 13.3533 11.91C13.6867 11.79 14.03 11.6833 14.3333 11.51C14.47 11.4333 14.5533 11.2233 14.6033 11.0567C14.6767 10.8167 14.81 10.7233 15.0633 10.7567C15.1633 10.77 15.2633 10.7567 15.3633 10.7567C15.7656 10.7567 16.0456 10.9389 16.2033 11.3033C16.2133 11.3233 16.2167 11.3467 16.2267 11.3633C16.33 11.5567 17.4733 11.94 17.6833 11.8533C18.3033 11.5933 18.09 11.5567 18.6 12.0233C18.64 12.06 18.6733 12.1067 18.7167 12.1367C19.0533 12.3567 19.1 12.6267 18.8667 12.9433C18.7333 13.1267 18.76 13.3 18.8867 13.4733C18.9367 13.5433 18.98 13.6233 19 13.7067C19.11 14.15 19.33 14.4833 19.8367 14.5733C19.8933 14.5833 19.9567 14.6867 19.97 14.7533C19.99 14.88 19.96 15.0133 19.98 15.14C20.06 15.6233 19.9467 15.98 19.3767 16.0633C19.3667 16.0633 19.3533 16.07 19.3433 16.0733C19.1667 16.1633 18.7567 17.2667 18.8367 17.4433C18.99 17.7922 18.9245 18.1044 18.64 18.38C18.6167 18.4033 18.59 18.4233 18.57 18.45C18.3367 18.7767 18.0633 18.86 17.71 18.6133C17.54 18.4967 17.3667 18.51 17.1833 18.6267C17.0467 18.7133 16.8867 18.7933 16.7267 18.8167C16.3333 18.87 16.16 19.1133 16.0833 19.45C16.0367 19.6633 15.9067 19.7267 15.7 19.7C15.6 19.6867 15.5 19.7 15.4 19.7C14.9689 19.7 14.67 19.5122 14.5033 19.1367C14.49 19.1067 14.4867 19.0733 14.4667 19.0467C14.36 18.8767 13.2067 18.5267 13.0167 18.6067C12.6878 18.7467 12.3933 18.69 12.1333 18.4367C12.1033 18.4067 12.07 18.3767 12.0367 18.3467C11.6433 17.9633 11.6533 17.97 11.8567 17.46C11.9067 17.3333 11.8633 17.1633 11.8433 17.0167C11.83 16.9367 11.7533 16.8667 11.7333 16.7833C11.6133 16.3233 11.4033 15.9533 10.8567 15.8667C10.8033 15.8567 10.7333 15.7267 10.73 15.6467C10.7167 15.3133 10.7233 14.98 10.7233 14.5833V14.5867ZM17.55 15.2167C17.55 14.0333 16.5633 13.09 15.3367 13.0967C14.1367 13.1033 13.1533 14.0567 13.15 15.22C13.1467 16.39 14.15 17.3667 15.3567 17.3667C16.57 17.3667 17.5533 16.4 17.55 15.2167Z" fill="#012D75"/>
<path d="M4.90676 8.05332C4.91009 6.36999 6.33343 5.00665 8.08343 5.00665C9.8401 5.00665 11.2668 6.39332 11.2601 8.09332C11.2534 9.76665 9.81343 11.15 8.07676 11.1467C6.32009 11.1467 4.90009 9.76332 4.90676 8.05665V8.05332ZM7.57343 8.31665C7.35676 8.07332 7.19676 7.86332 7.00343 7.68999C6.77343 7.48332 6.46009 7.49999 6.25009 7.69665C6.04343 7.88999 6.00676 8.20999 6.21009 8.42665C6.52676 8.75999 6.85676 9.08332 7.20676 9.37999C7.49676 9.62665 7.77676 9.58999 8.06343 9.31999C8.26343 9.13332 8.46009 8.93999 8.65676 8.74999C9.07343 8.34665 9.49676 7.94665 9.90343 7.53665C10.1334 7.30332 10.1234 6.95665 9.90343 6.75332C9.68676 6.55665 9.3701 6.56332 9.1201 6.77665C9.03676 6.84665 8.96009 6.92665 8.88343 7.00332C8.46676 7.41665 8.05009 7.83332 7.57009 8.31665H7.57343Z" fill="#012D75"/>
</g>
<defs>
<clipPath id="clip0_52_431">
<rect width="20" height="20" fill="white"/>
</clipPath>
</defs>
</svg>
