<svg width="20" height="20" viewBox="0 0 20 20" fill="none" xmlns="http://www.w3.org/2000/svg">
<g clip-path="url(#clip0_52_202)">
<path d="M17.79 10.0234C17.79 12.4634 17.7933 14.9 17.79 17.34C17.79 18.59 17.0767 19.5534 15.9 19.8967C15.6567 19.9667 15.39 19.9934 15.1333 19.9934C11.7133 20 8.28999 20 4.86999 19.9934C3.32999 19.9934 2.21333 18.8834 2.20999 17.3434C2.20333 13.6967 2.20999 10.0467 2.20999 6.40003C2.20999 5.5667 2.50666 4.88336 3.12666 4.31003C4.45333 3.09003 5.75666 1.8467 7.06666 0.61003C7.53666 0.176696 8.10999 0.0133629 8.72999 0.0100296C10.89 2.96117e-05 13.0467 -0.00663705 15.2067 0.0100296C16.6867 0.0233629 17.7833 1.15336 17.79 2.64003C17.8 5.10003 17.79 7.56003 17.79 10.0234ZM8.83333 13.8667C8.92999 14.01 8.99999 14.1067 9.06333 14.2067C9.54333 14.9367 10.0167 15.67 10.5 16.3967C10.8567 16.93 11.5233 17.01 11.9367 16.55C12.9967 15.37 14.0433 14.18 15.09 12.99C15.3467 12.6967 15.37 12.3134 15.1867 12.03C15.0167 11.7667 14.6067 11.6234 14.26 11.75C14.0867 11.8134 13.9233 11.94 13.7967 12.08C13.3033 12.62 12.8233 13.18 12.34 13.73C12.0667 14.0434 11.7867 14.3534 11.4933 14.6834C11.41 14.5634 11.3467 14.48 11.2867 14.39C10.8 13.6534 10.32 12.91 9.82999 12.1734C9.46333 11.6234 8.81999 11.55 8.36999 12.0167C7.25666 13.1734 6.14666 14.34 5.04333 15.5067C4.67666 15.8934 4.67999 16.3434 5.02666 16.6867C5.36999 17.0267 5.85999 17.0067 6.22999 16.6234C6.56999 16.2767 6.89666 15.9167 7.22999 15.5667C7.75333 15.01 8.27666 14.4567 8.82999 13.87L8.83333 13.8667ZM13.0167 7.9667C13.5967 7.9667 14.18 7.9667 14.76 7.9667C15.3067 7.96336 15.6367 7.65003 15.6333 7.15003C15.63 6.68003 15.28 6.3367 14.78 6.33336C13.5967 6.3267 6.32333 6.3267 5.13666 6.33336C4.63999 6.33336 4.31999 6.66003 4.31666 7.1367C4.30999 7.62336 4.64333 7.9567 5.15333 7.96336C5.74666 7.97003 12.4267 7.96336 13.02 7.96336L13.0167 7.9667ZM13.0067 4.65336C13.6 4.65336 14.19 4.6567 14.7833 4.65336C15.3067 4.6467 15.63 4.33336 15.6333 3.84336C15.6333 3.37336 15.29 3.0167 14.79 3.01003C13.6067 3.00003 9.82999 3.00003 8.64666 3.01003C8.13333 3.01336 7.80666 3.36003 7.81666 3.84336C7.82666 4.33336 8.15333 4.6467 8.67333 4.65003C9.25333 4.6567 12.4267 4.65003 13.01 4.65003L13.0067 4.65336Z" fill="#012D75"/>
</g>
<defs>
<clipPath id="clip0_52_202">
<rect width="20" height="20" fill="white"/>
</clipPath>
</defs>
</svg>
