<svg width="20" height="20" viewBox="0 0 20 20" fill="none" xmlns="http://www.w3.org/2000/svg">
<g clip-path="url(#clip0_52_275)">
<path d="M7 19.4767C6.85333 19.4433 6.7 19.4267 6.55666 19.3733C5.49666 18.9867 4.53666 18.4267 3.67 17.7067C3.22666 17.3367 3.12 16.7967 3.35333 16.2167C3.76666 15.1867 3.61 14.24 2.87666 13.41C2.47333 12.9533 1.95 12.69 1.34333 12.6067C0.583331 12.5 0.233331 12.1667 0.109998 11.4C-0.0633356 10.3067 -0.0266689 9.21334 0.189998 8.13001C0.306664 7.55334 0.709998 7.20001 1.31333 7.12001C3.03666 6.89001 4.04333 5.24668 3.45666 3.61334C3.23 2.98334 3.38 2.47668 3.91 2.06668C4.69666 1.46001 5.55333 0.983344 6.48 0.630011C7.05666 0.410011 7.56 0.536678 7.96 1.00334C9.09666 2.32001 10.91 2.32334 12.04 1.01001C12.45 0.533344 12.9467 0.413344 13.5367 0.636678C14.55 1.02001 15.4767 1.56001 16.3133 2.24668C16.7933 2.64001 16.9367 3.13001 16.7367 3.71334C16.1867 5.31668 17.1033 6.89668 18.7667 7.20334C19.3833 7.32001 19.73 7.67001 19.8467 8.28334C20.06 9.41668 20.0433 10.5467 19.83 11.6767C19.7267 12.22 19.3167 12.61 18.7567 12.6933C17.04 12.9533 16.07 14.6133 16.68 16.2433C16.9 16.83 16.7633 17.3367 16.28 17.7333C15.5033 18.3733 14.6467 18.88 13.7167 19.2633C13.1567 19.4933 12.61 19.35 12.2267 18.87C11.0767 17.4433 9.12666 17.47 8.01333 18.9267C7.74 19.2833 7.41333 19.4567 7 19.4767ZM13.3367 9.97334C13.3367 8.15668 11.84 6.65668 10.0267 6.65334C8.17666 6.65334 6.67333 8.13668 6.67 9.97001C6.67 11.8267 8.15666 13.32 10.0133 13.32C11.8467 13.32 13.3367 11.82 13.3367 9.97334Z" fill="#012D75"/>
</g>
<defs>
<clipPath id="clip0_52_275">
<rect width="20" height="20" fill="white"/>
</clipPath>
</defs>
</svg>
