<svg width="20" height="20" viewBox="0 0 20 20" fill="none" xmlns="http://www.w3.org/2000/svg">
<g clip-path="url(#clip0_52_459)">
<path fill-rule="evenodd" clip-rule="evenodd" d="M7.43905 9.16108C7.46111 9.17961 7.48591 9.20044 7.51322 9.22556C7.71294 8.90935 7.89935 8.61308 8.08575 8.31684L8.08656 8.31556C8.17458 8.17633 8.26313 8.03738 8.35168 7.89843C9.00089 6.87974 9.65031 5.86073 10.0932 4.72556C10.3932 3.96223 10.5932 3.17556 10.4432 2.35556C10.1699 0.858898 8.61989 -0.201102 7.09322 0.032231C5.38989 0.292231 4.29989 1.6389 4.48656 3.2589C4.57322 4.0289 4.81656 4.7589 5.19322 5.42556C5.69269 6.31351 6.21661 7.18573 6.74096 8.05867C6.94099 8.39167 7.14107 8.72478 7.33989 9.0589C7.36006 9.09475 7.39379 9.12307 7.43905 9.16108ZM7.49656 1.67556C8.23322 1.6889 8.80989 2.2889 8.79989 3.03223H8.79656C8.78656 3.7489 8.18989 4.3289 7.46989 4.3289C6.73989 4.32556 6.13989 3.7189 6.14656 2.9889C6.15656 2.2589 6.76656 1.66223 7.49656 1.67556ZM1.04409 19.0139L1.04413 19.0139C1.38748 18.5277 1.72318 18.0524 2.06011 17.5782C2.37458 17.1349 2.68979 16.6919 3.00501 16.2489L3.00511 16.2487C3.63542 15.3629 4.26573 14.477 4.89011 13.5882C5.00344 13.4249 5.10677 13.3549 5.31677 13.3816C5.74011 13.4316 6.08677 13.2516 6.28677 12.8782C6.39011 12.6882 6.51344 12.6549 6.70677 12.6549C8.1041 12.6599 9.50331 12.6593 10.903 12.6587H10.9031C11.3699 12.6585 11.8367 12.6582 12.3034 12.6582C12.3309 12.6582 12.3597 12.6603 12.3886 12.6623C12.4646 12.6676 12.5412 12.673 12.5968 12.6416C12.6968 12.5849 12.8401 12.4616 12.8301 12.3816C12.8201 12.2716 12.7001 12.1516 12.5968 12.0816C12.5464 12.048 12.4683 12.0541 12.3912 12.0602C12.3612 12.0626 12.3314 12.0649 12.3034 12.0649H12.3018C10.449 12.0649 8.59624 12.0649 6.74011 12.0682C6.52344 12.0682 6.38344 12.0349 6.26677 11.8182C6.06011 11.4449 5.70344 11.3149 5.28011 11.3316C5.17011 11.3349 5.01344 11.2916 4.95677 11.2149C3.61032 9.33641 2.27181 7.4473 0.934164 5.55941L0.446774 4.87157C0.43714 4.85809 0.430847 4.84126 0.422101 4.81787C0.415717 4.80079 0.408026 4.78023 0.396774 4.75491C0.438487 4.75238 0.477804 4.74889 0.515633 4.74554L0.515642 4.74554C0.577566 4.74005 0.635503 4.73491 0.693441 4.73491L1.35337 4.73464H1.35346C2.23249 4.73411 3.11023 4.73358 3.99011 4.74157C4.09677 4.74157 4.27011 4.80824 4.30344 4.89158C4.72634 5.94488 5.3231 6.9009 5.91921 7.85587C6.07958 8.11278 6.2399 8.36961 6.39677 8.62824C6.45411 8.72254 6.51048 8.81732 6.5668 8.91203L6.56689 8.91218C6.65788 9.06517 6.74875 9.21798 6.84344 9.36824C7.17677 9.89824 7.79011 9.91491 8.11011 9.38491C8.34525 8.9936 8.59054 8.60796 8.83587 8.22227C9.51216 7.15906 10.1887 6.09545 10.6534 4.91157C10.6834 4.83157 10.8301 4.74491 10.9234 4.74491C12.5401 4.73935 14.1558 4.73894 15.7715 4.73853H15.7716C17.0641 4.7382 18.3568 4.73787 19.6501 4.73491C19.9534 4.73491 19.9868 4.90158 19.9868 5.14158C19.9846 6.34145 19.9853 7.53985 19.986 8.73874C19.9864 9.33837 19.9868 9.93812 19.9868 10.5382C19.9868 13.5482 19.9868 16.5549 19.9901 19.5649C19.9901 19.8682 19.9201 20.0049 19.5834 20.0049C13.2568 19.9982 6.92677 19.9982 0.600107 19.9982C0.55139 19.9982 0.505136 19.9958 0.412628 19.9909L0.412563 19.9908L0.363441 19.9882L0.360107 19.9816C0.592996 19.6526 0.820171 19.331 1.04409 19.0139ZM14.4534 6.11824C14.4534 6.06222 14.4563 6.00592 14.4592 5.94975C14.4661 5.8154 14.473 5.68184 14.4401 5.55491C14.4134 5.44491 14.2768 5.29491 14.1801 5.28824C14.0834 5.28158 13.9001 5.42824 13.8934 5.51824C13.8634 5.91491 13.8668 6.31491 13.8934 6.71158C13.9001 6.79491 14.0768 6.93824 14.1568 6.92491C14.2634 6.90824 14.4068 6.78158 14.4334 6.67824C14.4664 6.55363 14.4595 6.41907 14.4526 6.28392V6.28389C14.4497 6.22744 14.4468 6.17088 14.4468 6.11491L14.4534 6.11824ZM14.4534 8.65491C14.4534 8.60011 14.4563 8.54445 14.4592 8.48868C14.4661 8.35449 14.4731 8.21971 14.4401 8.09491C14.4134 7.98491 14.2768 7.83491 14.1801 7.82824C14.0834 7.82491 13.9001 7.96824 13.8934 8.06157C13.8601 8.45491 13.8601 8.85491 13.8934 9.24824C13.9001 9.33824 14.0834 9.48491 14.1801 9.48158C14.2734 9.47824 14.4134 9.32491 14.4401 9.21491C14.4719 9.08516 14.4642 8.94461 14.4565 8.80517V8.80515C14.4538 8.75474 14.451 8.70447 14.4501 8.65491H14.4534ZM14.4534 11.2082C14.4534 11.1523 14.4561 11.0955 14.4588 11.0386C14.4651 10.9056 14.4715 10.772 14.4434 10.6482C14.4168 10.5382 14.2868 10.3816 14.1901 10.3749C14.0968 10.3682 13.9068 10.5116 13.9001 10.6016C13.8668 10.9949 13.8668 11.3949 13.8968 11.7882C13.9034 11.8816 14.1034 12.0516 14.1734 12.0316C14.2868 12.0016 14.4134 11.8582 14.4468 11.7382C14.4792 11.6248 14.4714 11.5002 14.4636 11.3754V11.3754C14.4602 11.3205 14.4568 11.2656 14.4568 11.2116L14.4534 11.2082ZM9.30891 19.331L9.30893 19.331C9.34138 19.3252 9.38346 19.3177 9.40011 19.2916L9.44352 19.2298C9.64932 18.937 9.85593 18.643 10.0334 18.3316C10.0668 18.2749 9.97011 18.0749 9.89677 18.0449C9.80011 18.0082 9.61677 18.0449 9.55344 18.1182C9.35011 18.3649 9.17344 18.6349 9.01344 18.9116C8.89344 19.1182 9.02677 19.3382 9.27344 19.3382H9.27677C9.28441 19.3354 9.29588 19.3333 9.30891 19.331ZM11.69 15.8009C11.6753 15.806 11.6626 15.8104 11.6537 15.8148C11.3991 15.8032 11.2706 15.5841 11.3901 15.3816C11.5501 15.1049 11.7268 14.8349 11.9301 14.5916C11.9934 14.5149 12.1934 14.4882 12.2968 14.5282C12.3668 14.5582 12.4401 14.7749 12.4001 14.8482C12.2487 15.1213 12.0656 15.3786 11.8837 15.6341L11.8168 15.7282C11.7874 15.7674 11.7311 15.7868 11.69 15.8009ZM18.2434 17.2749C18.173 17.181 18.1043 17.0876 18.0363 16.9951L18.0362 16.9951C17.853 16.746 17.6745 16.5034 17.4801 16.2749C17.4434 16.2316 17.2501 16.2649 17.1868 16.3249C17.1234 16.3816 17.0834 16.5516 17.1201 16.6182C17.3034 16.9316 17.5134 17.2316 17.7334 17.5216C17.7734 17.5749 17.9301 17.5916 18.0001 17.5582C18.0583 17.5314 18.0999 17.473 18.1533 17.3982L18.1533 17.3982C18.1794 17.3615 18.2084 17.321 18.2434 17.2782V17.2749ZM18.5601 17.9982C18.3468 17.9982 18.2001 18.2282 18.3134 18.4249C18.4768 18.7016 18.6534 18.9716 18.8501 19.2249C18.9934 19.4116 19.2501 19.3716 19.3401 19.1716C19.4334 18.9616 18.7934 18.0016 18.5601 18.0016V17.9982ZM14.9968 12.7149C14.7668 12.7149 14.6334 12.9216 14.7534 13.1316C14.9134 13.4082 15.0968 13.6749 15.2901 13.9282C15.4368 14.1182 15.6901 14.0782 15.7768 13.8749C15.8701 13.6516 15.2368 12.7116 14.9968 12.7116V12.7149ZM13.6668 13.0249C13.6351 12.983 13.6088 12.94 13.5847 12.9006C13.5379 12.8241 13.4996 12.7614 13.4468 12.7482C13.3501 12.7216 13.1768 12.7482 13.1234 12.8149C12.9101 13.0816 12.7201 13.3682 12.5501 13.6682C12.5101 13.7382 12.5668 13.9116 12.6368 13.9816C12.6934 14.0382 12.8934 14.0582 12.9301 14.0149C13.1325 13.7678 13.3183 13.5104 13.5104 13.2442C13.5619 13.1728 13.6139 13.1008 13.6668 13.0282V13.0249ZM17.0501 15.4916C16.9796 15.3997 16.9106 15.3083 16.8422 15.2177C16.6549 14.9697 16.4721 14.7277 16.2768 14.4982C16.2434 14.4616 16.0401 14.4982 15.9934 14.5649C15.9334 14.6449 15.9034 14.8149 15.9468 14.8949C16.1101 15.1816 16.2968 15.4582 16.5034 15.7149C16.5568 15.7816 16.7301 15.8049 16.8268 15.7749C16.8784 15.7598 16.9162 15.7003 16.9634 15.6259L16.9634 15.6259C16.9893 15.5851 17.018 15.5398 17.0534 15.4949L17.0501 15.4916ZM11.3101 16.5416C11.2769 16.5015 11.2492 16.4606 11.2239 16.4233C11.1755 16.352 11.136 16.2936 11.0834 16.2782C10.9834 16.2516 10.8134 16.2682 10.7601 16.3349C10.5501 16.6016 10.3568 16.8882 10.1901 17.1849C10.1501 17.2582 10.1968 17.4282 10.2601 17.5016C10.3134 17.5616 10.5134 17.5916 10.5468 17.5516C10.7442 17.3142 10.9285 17.0637 11.1193 16.8043L11.1193 16.8043C11.1831 16.7176 11.2475 16.63 11.3134 16.5416H11.3101ZM0.0134277 19.4335V5.29688C0.0468848 5.33836 0.0755062 5.37286 0.101018 5.40362L0.101034 5.40364C0.139058 5.44947 0.170173 5.48698 0.200094 5.52688C0.58101 6.06321 0.961684 6.59955 1.34231 7.13582L1.34257 7.13618C2.37412 8.58955 3.40533 10.0424 4.44009 11.4935C4.54343 11.6369 4.54676 11.7435 4.50009 11.9302C4.45085 12.1272 4.46429 12.3407 4.47776 12.5544C4.48343 12.6445 4.48911 12.7346 4.49009 12.8235C4.49009 12.8584 4.49367 12.8963 4.49726 12.9343C4.50567 13.0233 4.51415 13.1131 4.47676 13.1669C3.03343 15.2169 1.58343 17.2602 0.130094 19.3035C0.113853 19.3267 0.0943811 19.3467 0.0638101 19.3781H0.0638083C0.0504602 19.3918 0.0349961 19.4076 0.0167611 19.4269L0.0134277 19.4335Z" fill="#012D75"/>
</g>
<defs>
<clipPath id="clip0_52_459">
<rect width="20" height="20" fill="white"/>
</clipPath>
</defs>
</svg>
